<svg enable-background="new 0 0 130 130" viewBox="0 0 130 130" xmlns="http://www.w3.org/2000/svg"><path d="m3.5 119.7h122.2v6.6h-122.2z" fill="#662c14"/><path d="m120.6 46.3-24-26.4-31.7-11.3-30.2 11.3-25.5 26.4v73.4h111.4z" fill="#e62d27"/><g fill="#f2f2f2"><path d="m63.7 7.5h2.3v38.2h-2.3z"/><path d="m99.3 19.6-1.4-1.9-33.7 27 1.4 1.9z"/><path d="m30.9 19.6 1.4-1.9 33.7 27-1.4 1.9z"/><path d="m9.2 43.6h111.4v3.4h-111.4z"/></g><path d="m9.2 60.7 25.6-26.4 30.1-11.3 31.8 11.3 23.9 26.4v-14.4l-24-26.4-31.7-11.3-30.2 11.3-25.5 26.4z" fill="#020203" opacity=".35"/><path d="m3.6 52.5-3.6-3.5 31.4-32.8 33.4-12.5 35.3 12.5 29.9 33.2-3.6 3.4-29.1-32.3-32.4-11.5-30.7 11.5z" fill="#fbb80b"/><path d="m39.3 75.4h51.4v44.3h-51.4z" fill="#f2f2f2"/><path d="m42.1 78h45.8v41.7h-45.8z" fill="#582a1a"/><path d="m85.4 119.7-43.3-39.5v-2.2h2.5l43.4 39.5v2.2z" fill="#3b1d13"/><path d="m42.1 117.2 43.6-39.2h2.2v2.5l-43.6 39.2h-2.2z" fill="#3b1d13"/><path d="m64.5 78h1v41.7h-1z" fill="#1c0d09"/><circle cx="22" cy="65" fill="#9eab05" r="20" stroke="#fff" stroke-miterlimit="10"/><text fill="#fff" font-family="'Museo500-Regular'" font-size="29.2409" transform="translate(13.6226 73.9623)">2</text></svg>