<svg enable-background="new 0 0 130 130" viewBox="0 0 130 130" xmlns="http://www.w3.org/2000/svg"><path d="m118.4 115.1c0 8.2-6.7 14.9-14.9 14.9h-76.9c-8.2 0-14.9-6.7-14.9-14.9v-99.5c0-8.2 6.7-14.9 14.9-14.9h76.9c8.2 0 14.9 6.7 14.9 14.9z" fill="#e8e3d1"/><g fill="#605553"><path d="m103.4 0h-76.9c-8.2 0-14.9 6.7-14.9 14.9v25.6h106.7v-25.6c0-8.2-6.7-14.9-14.9-14.9z"/><path d="m28.8 55.3h72.6v2.5h-72.6z"/><path d="m28.8 74.2h72.6v2.5h-72.6z"/><path d="m28.8 93h72.6v2.5h-72.6z"/><path d="m28.8 111.9h72.6v2.5h-72.6z"/></g><text fill="#fff" font-family="'Roboto-Bold'" font-size="20.9451" transform="translate(21.8485 26.3615)">MANUAL</text><circle cx="22" cy="65" fill="#9eab05" r="20" stroke="#fff" stroke-miterlimit="10"/><text fill="#fff" font-family="'Museo500-Regular'" font-size="29.2409" transform="matrix(1.1099 0 0 1 13.8213 73.9622)">1</text></svg>