<svg enable-background="new 0 0 130 130" viewBox="0 0 130 130" xmlns="http://www.w3.org/2000/svg"><path d="m130 118.31h-130l26.32-43.87h77.36z" fill="#412820"/><path d="m21.91 120.12h-13.66l22.98-45.68.3-.16c2.44-1.31 5.39-1.25 7.79.14l.04.02z" fill="#864027"/><path d="m41.84 120.12h-13.66l14.91-45.68.24-.13c2.33-1.29 5.15-1.31 7.51-.07l.38.2z" fill="#864027"/><path d="m61.77 120.12h-13.66l6.84-45.68.14-.08c2.32-1.32 5.14-1.39 7.52-.17l.48.25z" fill="#864027"/><path d="m81.7 120.12h-13.66l-1.23-45.68.14-.08c2.32-1.32 5.14-1.38 7.51-.16l.47.24z" fill="#864027"/><path d="m101.63 120.12h-13.66l-9.3-45.68.04-.02c2.3-1.36 5.14-1.46 7.53-.26l.56.28z" fill="#864027"/><path d="m121.56 120.12h-13.66l-17.37-45.68.04-.03c2.3-1.36 5.14-1.45 7.53-.25l.56.28z" fill="#864027"/><ellipse cx="90.11" cy="33.89" fill="#f28c1b" rx="15.47" ry="15.47" transform="matrix(.9964 -.0847 .0847 .9964 -2.5464 7.753)"/><ellipse cx="90.11" cy="33.97" fill="#fbb80b" rx="12.94" ry="12.94" transform="matrix(.9194 -.3933 .3933 .9194 -6.097 38.1805)"/><path d="m89.56 10.36-1.01 5.86c-.06.35.21.68.57.68h1.97c.36 0 .63-.32.57-.67l-.96-5.86c-.1-.65-1.02-.65-1.14-.01z" fill="#fbb80b"/><path d="m106.4 16.85-4.86 3.43c-.29.21-.33.63-.08.88l1.4 1.4c.25.25.67.22.88-.07l3.47-4.83c.37-.53-.28-1.19-.81-.81z" fill="#fbb80b"/><path d="m113.72 33.34-5.86-1.01c-.35-.06-.68.21-.68.57v1.97c0 .36.32.63.67.57l5.86-.96c.65-.11.65-1.03.01-1.14z" fill="#fbb80b"/><path d="m103.8 45.31c-.21-.29-.63-.33-.88-.08l-1.4 1.4c-.25.25-.22.67.07.88l4.83 3.47c.53.38 1.18-.27.81-.8z" fill="#fbb80b"/><path d="m91.18 50.95h-1.98c-.36 0-.63.32-.57.67l.96 5.86c.11.64 1.03.65 1.14 0l1.01-5.86c.07-.34-.2-.67-.56-.67z" fill="#fbb80b"/><path d="m77.44 45.3c-.25-.25-.67-.22-.88.07l-3.46 4.83c-.38.53.27 1.18.8.81l4.86-3.43c.29-.21.33-.63.08-.88z" fill="#fbb80b"/><path d="m72.45 32.41-5.86.96c-.64.11-.65 1.03 0 1.14l5.86 1.01c.35.06.68-.21.68-.57v-1.97c-.01-.36-.33-.63-.68-.57z" fill="#fbb80b"/><path d="m73.88 16.87c-.53-.38-1.18.27-.81.8l3.43 4.86c.21.29.63.33.88.08l1.4-1.4c.25-.25.22-.67-.07-.88z" fill="#fbb80b"/><path d="m49.02 42.77c-.38-3.77-3.56-6.71-7.43-6.71-3.86 0-7.04 2.93-7.43 6.7h-.56c-3 0-5.43 2.43-5.43 5.43v.11c0 3 2.43 5.43 5.43 5.43h15.3c3 0 5.43-2.43 5.43-5.43v-.11c0-2.96-2.37-5.35-5.31-5.42z" fill="#9dd6e7"/><g fill="#77b82a"><path d="m24.31 111.49h-10.2c0-2.82 2.28-5.1 5.1-5.1 2.81 0 5.1 2.29 5.1 5.1z"/><path d="m28.56 100.77h-9.72c0-2.68 2.17-4.86 4.86-4.86 2.68 0 4.86 2.18 4.86 4.86z"/><path d="m32.65 90.76h-8.62c0-2.38 1.93-4.31 4.31-4.31 2.39 0 4.31 1.93 4.31 4.31z"/><path d="m36.3 81.46h-7.96c0-2.2 1.78-3.98 3.98-3.98s3.98 1.78 3.98 3.98z"/><path d="m105.72 111.49h10.2c0-2.82-2.28-5.1-5.1-5.1s-5.1 2.29-5.1 5.1z"/><path d="m101.47 100.77h9.72c0-2.68-2.17-4.86-4.86-4.86s-4.86 2.18-4.86 4.86z"/><path d="m97.37 90.76h8.62c0-2.38-1.93-4.31-4.31-4.31s-4.31 1.93-4.31 4.31z"/><path d="m93.73 81.46h7.96c0-2.2-1.78-3.98-3.98-3.98s-3.98 1.78-3.98 3.98z"/><path d="m87.17 111.49h10.2c0-2.82-2.28-5.1-5.1-5.1s-5.1 2.29-5.1 5.1z"/><path d="m84.9 100.77h9.72c0-2.68-2.17-4.86-4.86-4.86-2.68 0-4.86 2.18-4.86 4.86z"/><path d="m82.4 90.76h8.62c0-2.38-1.93-4.31-4.31-4.31s-4.31 1.93-4.31 4.31z"/><path d="m80.66 81.46h7.96c0-2.2-1.78-3.98-3.98-3.98s-3.98 1.78-3.98 3.98z"/><path d="m69.16 111.49h10.2c0-2.82-2.28-5.1-5.1-5.1s-5.1 2.29-5.1 5.1z"/><path d="m68.13 100.77h9.72c0-2.68-2.17-4.86-4.86-4.86s-4.86 2.18-4.86 4.86z"/><path d="m67.9 90.76h8.62c0-2.38-1.93-4.31-4.31-4.31s-4.31 1.93-4.31 4.31z"/><path d="m67.57 81.46h7.96c0-2.2-1.78-3.98-3.98-3.98s-3.98 1.78-3.98 3.98z"/><path d="m50.49 111.49h10.2c0-2.82-2.28-5.1-5.1-5.1-2.81 0-5.1 2.29-5.1 5.1z"/><path d="m52.15 100.77h9.72c0-2.68-2.17-4.86-4.86-4.86s-4.86 2.18-4.86 4.86z"/><path d="m53.25 90.76h8.62c0-2.38-1.93-4.31-4.31-4.31-2.39 0-4.31 1.93-4.31 4.31z"/><path d="m54.33 81.46h7.96c0-2.2-1.78-3.98-3.98-3.98s-3.98 1.78-3.98 3.98z"/><path d="m32.32 111.49h10.2c0-2.82-2.28-5.1-5.1-5.1s-5.1 2.29-5.1 5.1z"/><path d="m35.51 100.77h9.72c0-2.68-2.17-4.86-4.86-4.86-2.68 0-4.86 2.18-4.86 4.86z"/><path d="m38.4 90.76h8.62c0-2.38-1.93-4.31-4.31-4.31s-4.31 1.93-4.31 4.31z"/><path d="m41.25 81.46h7.96c0-2.2-1.78-3.98-3.98-3.98s-3.98 1.78-3.98 3.98z"/></g></svg>