<svg enable-background="new 0 0 130 130" viewBox="0 0 130 130" xmlns="http://www.w3.org/2000/svg"><path d="m23.1 0s-12-.6-5.6 36c0 0 4.3 12.4-1.1 20.4h79.6v-56.4z" fill="#afcdfb"/><path d="m28.1 21.6h83.1v108.4h-83.1z" fill="#6fa3d8"/><path d="m30.8 21.6h81.7v108.4h-81.7z" fill="#9abcef"/><path d="m112.5 21.6h-81.7c.5-6.2-.2-10.7-1.3-13.9-2.1-6.1-5.7-7.7-5.7-7.7h77c6.6 0 11.7 4 13.1 9.2.1.2.1.4.1.6 1.4 6-1.4 11.7-1.5 11.8z" fill="#e9f3fe"/><path d="m112.5 21.6h-81.7c.5-6.2-.2-10.7-1.3-13.9 8.3 1.5 29 4.8 51.2 4.2 14.3-.4 25.6-1.3 33.4-2.2 1.3 6.1-1.5 11.8-1.6 11.9z" fill="#d8e8fd"/><g fill="#fff"><path d="m90.8 46.6h-43c-.6 0-1-.5-1-1s.5-1 1-1h42.9c.6 0 1 .5 1 1 .1.6-.4 1-.9 1z"/><path d="m73.8 50h-26c-.6 0-1-.5-1-1s.5-1 1-1h26c.6 0 1 .5 1 1 0 .6-.4 1-1 1z"/><path d="m42.7 49.7v-4.2h-.5c-.3 0-.5-.1-.5-.4 0-.2.1-.3.4-.4.1 0 .3-.1.6-.1s.5 0 .7 0 .3 0 .3.1.1.2.1.5v4.5h.6c.4 0 .5.2.5.5s-.2.5-.5.5h-2.4c-.2 0-.3 0-.4-.1s-.2-.2-.2-.4c0-.3.2-.5.6-.5z"/><path d="m90.8 68h-43c-.6 0-1-.5-1-1s.5-1 1-1h42.9c.6 0 1 .5 1 1 .1.6-.4 1-.9 1z"/><path d="m73.8 71.4h-26c-.6 0-1-.5-1-1s.5-1 1-1h26c.6 0 1 .5 1 1 0 .6-.4 1-1 1z"/><path d="m44.9 71c0 .3-.2.4-.6.4h-2.4c-.3 0-.5-.1-.5-.4 0-.1 0-.2.1-.3.1-.2.3-.4.6-.7.4-.5.7-.9 1-1.3.1-.1.2-.3.4-.6.1-.2.2-.5.2-.6 0-.2-.1-.3-.2-.5s-.3-.2-.5-.2-.3.1-.5.2c-.1.1-.2.2-.2.4-.1.3-.1.4-.1.5-.1.2-.2.2-.4.2s-.3-.1-.3-.2c-.1-.1-.1-.2-.1-.4s0-.3.1-.5c.1-.4.3-.7.6-.9s.6-.3 1-.3.8.1 1.1.4.5.7.5 1.1c0 .3-.1.7-.3 1-.1.2-.4.5-.8 1-.2.2-.5.6-.9 1.1h1.6c.4.2.6.4.6.6z"/><path d="m90.8 85.9h-43c-.6 0-1-.5-1-1s.5-1 1-1h42.9c.6 0 1 .5 1 1 .1.5-.4 1-.9 1z"/><path d="m73.8 89.3h-26c-.6 0-1-.5-1-1s.5-1 1-1h26c.6 0 1 .5 1 1s-.4 1-1 1z"/><path d="m44.9 87.6c0 .5-.2.9-.5 1.2s-.8.4-1.3.4c-.4 0-.8-.1-1-.3-.5-.3-.7-.7-.7-1.1 0-.1 0-.2.1-.3s.2-.1.3-.1.2.1.4.3c.2.3.3.4.3.5.2.2.4.3.6.3.3 0 .6-.1.8-.4.1-.1.1-.3.1-.5 0-.5-.3-.8-.9-.8-.3 0-.5-.2-.5-.4s.1-.3.3-.4c.3-.1.5-.2.5-.2.2-.1.3-.3.3-.7 0-.2 0-.3-.2-.4s-.3-.2-.4-.2c-.2 0-.4.1-.5.2s-.2.3-.3.5-.2.3-.3.3-.2-.1-.3-.2-.1-.2-.1-.3c0-.2 0-.3.1-.5.1-.3.3-.5.6-.6s.5-.2.9-.2.8.1 1.1.4.4.6.4 1c0 .5-.2.9-.6 1.2.5.2.8.6.8 1.3z"/><path d="m85.6 28.8h-26.3c-.7 0-1.2-.5-1.2-1.2s.5-1.2 1.2-1.2h26.3c.7 0 1.2.5 1.2 1.2s-.6 1.2-1.2 1.2z"/><path d="m92.8 32.5h-40.8c-.7 0-1.2-.5-1.2-1.2s.5-1.2 1.2-1.2h40.8c.7 0 1.2.5 1.2 1.2s-.6 1.2-1.2 1.2z"/></g><path d="m69.2 57.6c-8.9 0-17.3-1.1-23.6-2.7-6.4-1.6-9.8-4.2-9.8-6.6 0-2.1 2.8-4.1 8.1-5.6-5.1 1.5-7.8 3.7-7.8 5.6 0 2.1 3.5 4.2 9.6 5.8 6.3 1.6 14.6 2.5 23.5 2.5s17.2-.9 23.5-2.5c6.1-1.5 9.6-3.7 9.6-5.8 0-2.3-3.7-5.1-9.6-7.3-6.8-2.6-15.1-3.5-23.5-3.5-15.7 0-22.2 1.8-27.8 4.1 5.6-2.3 12-4.9 27.8-4.9 8.4 0 16.8 1.4 23.6 4 6.1 2.3 9.8 5.2 9.8 7.7 0 2.3-3.5 4.5-9.9 6.1-6.2 1.5-14.6 3.1-23.5 3.1z" fill="#c65447"/><path d="m94 106.4h-50.2c-.3 0-.6-.3-.6-.6s.3-.6.6-.6h50.2c.3 0 .6.3.6.6s-.2.6-.6.6z" fill="#fff"/><path d="m94 108.9h-50.2c-.3 0-.6-.3-.6-.6s.3-.6.6-.6h50.2c.3 0 .6.3.6.6s-.2.6-.6.6z" fill="#fff"/><path d="m94 111.6h-50.2c-.3 0-.6-.3-.6-.6s.3-.6.6-.6h50.2c.3 0 .6.3.6.6s-.2.6-.6.6z" fill="#fff"/><path d="m87.4 114.3h-43.6c-.3 0-.6-.3-.6-.6s.3-.6.6-.6h43.6c.3 0 .6.3.6.6s-.3.6-.6.6z" fill="#fff"/><circle cx="21" cy="65" fill="#9eab05" r="20" stroke="#fff" stroke-miterlimit="10"/><text fill="#fff" font-family="'Museo500-Regular'" font-size="29.2409" transform="translate(12.5933 73.9625)">4</text></svg>